<?xml version="1.0" encoding="UTF-8"?>
<svg version="1.1" viewBox="0 0 150 150" xmlns="http://www.w3.org/2000/svg">
  <g transform="translate(17 110.5)">
    <path d="m97.656-74.56c-5.0781-5.0293-12.012-6.0547-20.947-6.0547h-37.5c-8.8379 0-15.772 1.0254-20.801 6.0547-5.0293 4.9804-5.957 11.865-5.957 20.703v37.207c0 8.9844 0.9277 15.869 5.957 20.85 5.0293 5.0293 11.963 6.0059 20.898 6.0059h37.402c8.9355 0 15.918-0.97658 20.947-6.0059 4.9808-5.0293 5.9078-11.865 5.9078-20.85v-37.06c0-8.9844-0.927-15.869-5.9078-20.85zm-3.8085 19.482v39.795c0 5.0781-0.6348 9.668-3.3204 12.354-2.7343 2.7344-7.373 3.418-12.451 3.418h-40.088c-5.0781 0-9.7656-0.73242-12.451-3.418-2.6855-2.6855-3.3691-7.2754-3.3691-12.354v-39.697c0-5.1757 0.6836-9.8144 3.3691-12.5 2.6856-2.6855 7.3731-3.3691 12.549-3.3691h39.99c5.0781 0 9.7168 0.6836 12.451 3.3691 2.6856 2.7344 3.3204 7.3243 3.3204 12.402zm-35.889 42.92c2.8808 0 4.6875-1.9531 4.6875-4.9805v-13.476h14.258c2.9297 0 5.0293-1.7578 5.0293-4.541 0-2.8809-2.002-4.6876-5.0293-4.6876h-14.258v-14.209c0-3.0274-1.8067-4.9805-4.6875-4.9805-2.832 0-4.541 2.0508-4.541 4.9805v14.209h-14.258c-3.0274 0-5.0293 1.8067-5.0293 4.6876 0 2.7832 2.0996 4.541 5.0293 4.541h14.258v13.476c0 2.9297 1.709 4.9805 4.541 4.9805z"/>
  </g>
</svg>
