<?xml version="1.0" encoding="UTF-8"?>
<svg version="1.1" viewBox="0 0 150 150" xmlns="http://www.w3.org/2000/svg">
  <g transform="translate(18.5 114.5)">
    <path d="m56.69-22.412c2.539 0 4.5898-2.0508 4.5898-4.4922v-49.121l-0.3906-7.2266 3.0273 3.5645 6.7871 7.2754c0.8301 0.8789 1.9531 1.3183 3.0762 1.3183 2.2461 0 4.1016-1.6113 4.1016-3.9062 0-1.2207-0.4883-2.0996-1.3184-2.9297l-16.406-15.772c-1.1718-1.1718-2.246-1.5625-3.4667-1.5625-1.1719 0-2.295 0.3907-3.4668 1.5625l-16.406 15.772c-0.8301 0.8301-1.2695 1.709-1.2695 2.9297 0 2.2949 1.8066 3.9062 4.0527 3.9062 1.1231 0 2.2949-0.4394 3.0762-1.3183l6.7871-7.2754 3.0273-3.6133-0.3418 7.2754v49.121c0 2.4414 2.0508 4.4922 4.5411 4.4922zm-28.174 39.014h56.25c10.596 0 16.064-5.4688 16.064-15.918v-47.998c0-10.449-5.4687-15.918-16.064-15.918h-13.184v9.7168h12.549c4.4433 0 6.9824 2.3437 6.9824 7.0312v46.289c0 4.6875-2.5391 7.0313-6.9824 7.0313h-54.98c-4.4922 0-6.9824-2.3438-6.9824-7.0313v-46.289c0-4.6875 2.4902-7.0312 6.9824-7.0312h12.695v-9.7168h-13.33c-10.547 0-16.064 5.4199-16.064 15.918v47.998c0 10.449 5.5176 15.918 16.064 15.918z"/>
  </g>
</svg>
